<svg width="31" height="36" viewBox="0 0 31 36" fill="none" xmlns="http://www.w3.org/2000/svg">
<path fill-rule="evenodd" clip-rule="evenodd" d="M13.3655 14.8655C13.3655 7.48396 7.38159 1.5 0 1.5V0.5C7.93387 0.5 14.3655 6.93167 14.3655 14.8655V16.5C14.3655 24.5888 20.768 31.1822 28.7817 31.4888L26.4645 29.1716C26.2692 28.9763 26.2692 28.6597 26.4645 28.4645C26.6597 28.2692 26.9763 28.2692 27.1716 28.4645L30.3536 31.6464C30.5488 31.8417 30.5488 32.1583 30.3536 32.3536L27.1716 35.5355C26.9763 35.7308 26.6597 35.7308 26.4645 35.5355C26.2692 35.3403 26.2692 35.0237 26.4645 34.8284L28.8026 32.4903C20.2268 32.1937 13.3655 25.1481 13.3655 16.5V14.8655Z" fill="#1E2834"/>
</svg>
