<svg width="18" height="18" viewBox="0 0 18 18" fill="none" xmlns="http://www.w3.org/2000/svg">
<path fill-rule="evenodd" clip-rule="evenodd" d="M0.873439 0.873439C1.37136 0.37552 2.17864 0.37552 2.67656 0.873439L9 7.19688L15.3234 0.873439C15.8214 0.37552 16.6286 0.37552 17.1266 0.873439C17.6245 1.37136 17.6245 2.17864 17.1266 2.67656L10.8031 9L17.1266 15.3234C17.6245 15.8214 17.6245 16.6286 17.1266 17.1266C16.6286 17.6245 15.8214 17.6245 15.3234 17.1266L9 10.8031L2.67656 17.1266C2.17864 17.6245 1.37136 17.6245 0.873439 17.1266C0.37552 16.6286 0.37552 15.8214 0.873439 15.3234L7.19688 9L0.873439 2.67656C0.37552 2.17864 0.37552 1.37136 0.873439 0.873439Z" fill="#7F91A1"/>
</svg>
