<svg width="111" height="27" viewBox="0 0 111 27" fill="none" xmlns="http://www.w3.org/2000/svg">
<g clip-path="url(#clip0_3_398)">
<path d="M14.4046 0C8.89694 0 4.43732 4.46281 4.43732 9.95207C4.43732 10.086 4.43732 10.2421 4.43732 10.376L7.44756 10.4876C7.42526 10.3091 7.42526 10.1306 7.42526 9.95207C7.42526 6.11405 10.547 2.99008 14.3823 2.99008C18.2176 2.99008 21.3393 6.11405 21.3393 9.95207C21.3393 13.6562 18.4405 16.7132 14.7836 16.9141L15.2965 19.8818C20.3582 19.4132 24.3272 15.1512 24.3272 9.95207C24.3495 4.46281 19.8899 0 14.4046 0Z" fill="#00838F"/>
<path fill-rule="evenodd" clip-rule="evenodd" d="M19.7338 9.95195C19.7338 12.9197 17.3479 15.3073 14.3823 15.3073C13.3789 15.3073 12.4646 15.0396 11.6619 14.571L5.46304 19.9486L0 26.9999L3.5231 13.2544L9.52129 12.161C9.20912 11.4916 9.05303 10.7553 9.05303 9.97427C9.05303 7.02881 11.4389 4.6189 14.4046 4.6189C17.3479 4.6189 19.7338 7.0065 19.7338 9.95195Z" fill="#00838F"/>
<path d="M33.9154 11.6258L33.7148 9.92993H29.2105V1.80762H30.8606V8.81423H32.4438V1.80762H34.0938V8.81423H35.1195V11.6258H33.9154Z" fill="#00838F"/>
<path d="M37.6838 10.0414C37.0372 10.0414 36.5466 9.86288 36.2121 9.50586C35.8777 9.14883 35.7216 8.63561 35.7216 7.96619V6.09181C35.7216 5.42239 35.8777 4.90916 36.2121 4.55214C36.5466 4.19511 37.0149 4.0166 37.6615 4.0166C38.3305 4.0166 38.7987 4.19511 39.0886 4.55214C39.3785 4.90916 39.5346 5.4447 39.5346 6.13644V7.11825H37.2156V8.07776C37.2156 8.36784 37.2379 8.59098 37.3048 8.72487C37.3716 8.85875 37.4831 8.94801 37.6615 8.94801C37.9514 8.94801 38.1075 8.72487 38.1075 8.3009V7.76536H39.5346V8.23396C39.5346 8.81412 39.3785 9.28272 39.044 9.59511C38.7541 9.8852 38.2859 10.0414 37.6838 10.0414ZM37.2602 6.38189H38.1521V5.80173C38.1521 5.55627 38.1075 5.37776 38.0406 5.26619C37.9737 5.15462 37.8622 5.10999 37.6838 5.10999C37.5277 5.10999 37.4162 5.17693 37.3494 5.2885C37.2825 5.40007 37.2602 5.62321 37.2602 5.93561V6.38189Z" fill="#00838F"/>
<path d="M40.4711 9.95214V4.15049H41.9874V6.44884H43.0354V4.12817H44.5517V9.92983H43.0354V7.47528H41.9874V9.92983H40.4711V9.95214Z" fill="#00838F"/>
<path d="M46.2686 9.95214V5.17693H45.2206V4.12817H48.8329V5.17693H47.7849V9.92983H46.2686V9.95214Z" fill="#00838F"/>
<path d="M49.5018 11.8487V4.12807H51.0181V4.57436C51.3972 4.21733 51.7985 4.03882 52.1999 4.03882C52.1999 4.03882 52.2222 4.03882 52.2445 4.03882C52.4675 4.03882 52.6682 4.10576 52.8465 4.21733C53.0249 4.3289 53.1587 4.4851 53.2479 4.66361C53.3371 4.84212 53.404 5.04295 53.4486 5.24378C53.4932 5.4446 53.5155 5.64543 53.5155 5.86857V8.09998C53.5155 8.68014 53.404 9.14874 53.181 9.50576C52.958 9.86279 52.6236 10.0413 52.1999 10.0413C51.8208 10.0413 51.4195 9.86279 51.0404 9.50576V11.8487H49.5018ZM51.531 9.01485C51.6425 9.01485 51.7316 8.97022 51.7985 8.90328C51.8654 8.81403 51.91 8.72477 51.9323 8.59088C51.9546 8.47931 51.9769 8.32312 51.9769 8.16692V5.77931C51.9769 5.55617 51.9323 5.37766 51.8654 5.22146C51.7985 5.08758 51.687 5.02064 51.531 5.02064H51.5087C51.3749 5.02064 51.1965 5.08758 51.0181 5.22146V8.85865C51.1965 8.94791 51.3526 9.01485 51.531 9.01485Z" fill="#00838F"/>
<path d="M56.548 9.95204L57.7967 6.80576L56.5926 4.15039H58.1089L58.7778 5.64543L59.3576 4.15039H60.584L59.3799 7.0289L60.6955 9.95204H59.1792L58.4211 8.27849L57.7967 9.95204H56.548Z" fill="#00838F"/>
<path d="M61.2752 9.95204V4.15039H62.5016V7.43056L64.0625 4.15039H65.2443V9.95204H64.0179V6.67188L62.4793 9.92973H61.2752V9.95204Z" fill="#00838F"/>
<path d="M66.27 11.8487V4.12807H67.7863V4.57436C68.1654 4.21733 68.5667 4.03882 68.9681 4.03882C68.9681 4.03882 68.9904 4.03882 69.0127 4.03882C69.2357 4.03882 69.4364 4.10576 69.6147 4.21733C69.7931 4.3289 69.9269 4.4851 70.0161 4.66361C70.1053 4.84212 70.1722 5.04295 70.2168 5.24378C70.2614 5.4446 70.2837 5.64543 70.2837 5.86857V8.09998C70.2837 8.68014 70.1722 9.14874 69.9492 9.50576C69.7262 9.86279 69.3918 10.0413 68.9681 10.0413C68.589 10.0413 68.1877 9.86279 67.8086 9.50576V11.8487H66.27ZM68.2991 9.01485C68.4106 9.01485 68.4998 8.97022 68.5667 8.90328C68.6336 8.81403 68.6782 8.72477 68.7005 8.59088C68.7228 8.47931 68.7451 8.32312 68.7451 8.16692V5.77931C68.7451 5.55617 68.7005 5.37766 68.6336 5.22146C68.5667 5.08758 68.4552 5.02064 68.2991 5.02064H68.2768C68.1431 5.02064 67.9647 5.08758 67.7863 5.22146V8.85865C67.9647 8.94791 68.1431 9.01485 68.2991 9.01485Z" fill="#00838F"/>
<path d="M71.2871 11.6927L71.1979 10.577C71.4209 10.577 71.5993 10.577 71.733 10.5547C71.8668 10.5324 71.9783 10.5101 72.0675 10.4655C72.1567 10.4208 72.2236 10.3762 72.2459 10.2869C72.2682 10.1977 72.2905 10.1084 72.2682 9.99687C72.2682 9.8853 72.2459 9.75141 72.2013 9.55058L70.8411 4.10596H72.1567L72.6473 6.47125L73.004 8.25637L73.3162 6.47125L73.7399 4.10596H75.1001L73.673 9.99687C73.6061 10.2423 73.5615 10.4431 73.4946 10.6217C73.4277 10.7779 73.3608 10.9341 73.2716 11.0679C73.1824 11.2018 73.0932 11.3134 72.9817 11.3803C72.8702 11.4473 72.7365 11.5142 72.5804 11.5588C72.402 11.6035 72.2236 11.6481 72.0229 11.6704C71.8222 11.6927 71.577 11.6927 71.2871 11.6927Z" fill="#00838F"/>
<path d="M75.7467 11.8487V4.12807H77.263V4.57436C77.642 4.21733 78.0434 4.03882 78.4448 4.03882C78.4448 4.03882 78.4671 4.03882 78.4894 4.03882C78.7124 4.03882 78.913 4.10576 79.0914 4.21733C79.2698 4.3289 79.4036 4.4851 79.4928 4.66361C79.582 4.84212 79.6489 5.04295 79.6935 5.24378C79.7381 5.4446 79.7604 5.64543 79.7604 5.86857V8.09998C79.7604 8.68014 79.6489 9.14874 79.4259 9.50576C79.2029 9.86279 78.8684 10.0413 78.4448 10.0413C78.0657 10.0413 77.6643 9.86279 77.2853 9.50576V11.8487H75.7467ZM77.7758 9.01485C77.8873 9.01485 77.9765 8.97022 78.0434 8.90328C78.1103 8.81403 78.1549 8.72477 78.1772 8.59088C78.1995 8.47931 78.2218 8.32312 78.2218 8.16692V5.77931C78.2218 5.55617 78.1772 5.37766 78.1103 5.22146C78.0434 5.08758 77.9319 5.02064 77.7758 5.02064H77.7535C77.6197 5.02064 77.4414 5.08758 77.263 5.22146V8.85865C77.4414 8.94791 77.6197 9.01485 77.7758 9.01485Z" fill="#00838F"/>
<path d="M80.6969 9.95204V4.15039H83.4618V5.17684H82.2131V9.95204H80.6969Z" fill="#00838F"/>
<path d="M84.0639 9.95204V4.15039H85.2903V7.43056L86.8512 4.15039H88.033V9.95204H86.8066V6.67188L85.268 9.92973H84.0639V9.95204Z" fill="#00838F"/>
<path d="M89.081 9.95204V4.15039H90.3074V7.43056L91.8682 4.15039H93.05V9.95204H91.8236V6.67188L90.2851 9.92973H89.081V9.95204Z" fill="#00838F"/>
<path d="M97.4428 9.95224V3.03489H96.1495V1.80762H100.386V3.03489H99.1151V9.95224H97.4428Z" fill="#00838F"/>
<path d="M101.077 9.95224V1.80762H104.98V3.0572H102.727V5.24398H103.017C103.842 5.24398 104.467 5.42249 104.89 5.80183C105.314 6.15886 105.515 6.76134 105.515 7.60927C105.515 7.98861 105.47 8.32332 105.381 8.59109C105.292 8.88117 105.18 9.10431 105.046 9.28282C104.89 9.46134 104.712 9.59522 104.489 9.70679C104.266 9.81836 104.021 9.8853 103.775 9.92993C103.53 9.97456 103.24 9.99687 102.906 9.99687H101.077V9.95224ZM102.727 8.83654H102.928C103.307 8.83654 103.597 8.74729 103.753 8.54646C103.909 8.36795 103.976 8.05555 103.976 7.60927C103.976 7.58696 103.976 7.56464 103.976 7.56464C103.976 7.16299 103.887 6.87291 103.731 6.69439C103.575 6.49357 103.307 6.40431 102.906 6.40431H102.727V8.83654Z" fill="#00838F"/>
<path d="M108.726 10.0414C108.28 10.0414 107.901 9.97446 107.588 9.84058C107.276 9.70669 107.031 9.52818 106.853 9.28272C106.674 9.03727 106.54 8.74719 106.473 8.43479C106.384 8.12239 106.362 7.74305 106.362 7.31909V4.44058C106.362 3.99429 106.407 3.61496 106.473 3.30256C106.54 2.99016 106.674 2.70008 106.853 2.45463C107.031 2.20917 107.276 2.03066 107.588 1.89677C107.901 1.76289 108.28 1.71826 108.726 1.71826C109.149 1.71826 109.506 1.76289 109.818 1.87446C110.108 1.98603 110.353 2.14223 110.532 2.36537C110.71 2.58851 110.822 2.81165 110.911 3.10173C110.978 3.3695 111.022 3.70421 111.022 4.06124V4.77529H109.417V4.01661C109.417 3.92735 109.417 3.86041 109.417 3.81578C109.417 3.77115 109.417 3.72653 109.417 3.63727C109.417 3.54801 109.417 3.50339 109.395 3.45876C109.395 3.41413 109.372 3.3695 109.35 3.30256C109.328 3.23562 109.328 3.19099 109.305 3.16867C109.283 3.14636 109.261 3.10173 109.216 3.0571C109.194 3.01248 109.149 2.99016 109.105 2.96785C109.06 2.94553 109.015 2.92322 108.949 2.92322C108.882 2.90091 108.815 2.90091 108.748 2.90091C108.614 2.90091 108.503 2.92322 108.413 2.96785C108.324 3.01248 108.257 3.0571 108.213 3.12405C108.168 3.19099 108.124 3.28025 108.101 3.39182C108.079 3.50339 108.057 3.61496 108.057 3.70421C108.057 3.79347 108.057 3.92735 108.057 4.06124V7.69843C108.057 8.10008 108.101 8.39016 108.213 8.56868C108.302 8.74719 108.503 8.85876 108.77 8.85876C108.882 8.85876 108.971 8.83644 109.038 8.81413C109.127 8.79182 109.172 8.74719 109.216 8.68025C109.261 8.6133 109.305 8.56867 109.328 8.50173C109.35 8.43479 109.372 8.36785 109.395 8.25628C109.417 8.14471 109.417 8.05545 109.417 7.98851C109.417 7.92157 109.417 7.81 109.417 7.69843V6.91744H111.022V7.58686C111.022 7.9662 110.978 8.30091 110.911 8.56868C110.844 8.85876 110.71 9.10421 110.554 9.32735C110.376 9.55049 110.153 9.729 109.841 9.84058C109.528 9.99677 109.172 10.0414 108.726 10.0414Z" fill="#00838F"/>
<path d="M28.8315 23.5636V21.0644C29.1213 20.9082 29.3666 20.6851 29.5673 20.4173C29.768 20.1495 29.9241 19.7925 30.0355 19.3462C30.147 18.9 30.2139 18.3644 30.2362 17.7173L30.3477 16.2H33.4026V21.0421H34.2276V23.5636H33.135L33.0235 22.0016H29.991L29.9018 23.5636H28.8315ZM30.4146 21.0421H32.0201V17.1371H31.4849L31.3957 18.052C31.3734 18.6545 31.3288 19.1454 31.2173 19.5694C31.1282 19.9933 31.0167 20.3057 30.8829 20.5066C30.7714 20.7074 30.6153 20.8859 30.4146 21.0421Z" fill="#00838F"/>
<path d="M36.7473 22.1131C36.1229 22.1131 35.6324 21.9346 35.2979 21.5999C34.9634 21.2651 34.8073 20.7742 34.8073 20.1494V18.0742C34.8073 17.4494 34.9857 16.9585 35.2979 16.6238C35.6324 16.2891 36.1006 16.1106 36.7473 16.1106C37.3716 16.1106 37.8622 16.2891 38.1967 16.6238C38.5311 16.9585 38.7095 17.4494 38.7095 18.0742V20.1494C38.7095 20.7742 38.5311 21.2651 38.1967 21.5999C37.8622 21.9346 37.3939 22.1131 36.7473 22.1131ZM36.7696 21.0643C36.948 21.0643 37.0595 20.9974 37.1263 20.8635C37.1932 20.7296 37.2155 20.5288 37.2155 20.261V17.9627C37.2155 17.6949 37.1932 17.4941 37.1263 17.3379C37.0595 17.204 36.948 17.137 36.7696 17.137C36.5912 17.137 36.4797 17.204 36.4128 17.3602C36.3459 17.4941 36.3236 17.7172 36.3236 17.9627V20.2387C36.3236 20.5065 36.3459 20.7073 36.4128 20.8412C36.4574 20.9974 36.5912 21.0643 36.7696 21.0643Z" fill="#00838F"/>
<path d="M39.646 22.0016V16.2H41.1623V18.5206H41.4076L42.3218 16.2H43.9496L42.7901 18.9669L43.9719 22.0239H42.3664L41.4076 19.4132H41.1623V22.0239H39.646V22.0016Z" fill="#00838F"/>
<path d="M45.2206 22.0016V17.2487H44.1725V16.2H47.7848V17.2487H46.7368V22.0016H45.2206Z" fill="#00838F"/>
<path d="M50.3045 22.1131C49.6802 22.1131 49.1896 21.9346 48.8552 21.5999C48.5207 21.2651 48.3646 20.7742 48.3646 20.1494V18.0742C48.3646 17.4494 48.543 16.9585 48.8552 16.6238C49.1896 16.2891 49.6579 16.1106 50.3045 16.1106C50.9289 16.1106 51.4194 16.2891 51.7539 16.6238C52.0884 16.9585 52.2668 17.4494 52.2668 18.0742V20.1494C52.2668 20.7742 52.0884 21.2651 51.7539 21.5999C51.4194 21.9346 50.9289 22.1131 50.3045 22.1131ZM50.3045 21.0643C50.4829 21.0643 50.5944 20.9974 50.6613 20.8635C50.7282 20.7296 50.7505 20.5288 50.7505 20.261V17.9627C50.7505 17.6949 50.7282 17.4941 50.6613 17.3379C50.5944 17.204 50.4829 17.137 50.3045 17.137C50.1261 17.137 50.0147 17.204 49.9478 17.3602C49.8809 17.4941 49.8586 17.7172 49.8586 17.9627V20.2387C49.8586 20.5065 49.8809 20.7073 49.9478 20.8412C50.0147 20.9974 50.1261 21.0643 50.3045 21.0643Z" fill="#00838F"/>
<path d="M53.181 23.9205V16.1999H54.6973V16.6461C55.0763 16.2891 55.4777 16.1106 55.8791 16.1106C55.8791 16.1106 55.9014 16.1106 55.9237 16.1106C56.1466 16.1106 56.3473 16.1775 56.5257 16.2891C56.7041 16.4007 56.8379 16.5569 56.9271 16.7354C57.0163 16.9139 57.0832 17.1147 57.1278 17.3156C57.1724 17.5164 57.1947 17.7172 57.1947 17.9403V20.1718C57.1947 20.7519 57.0832 21.2205 56.8602 21.5775C56.6372 21.9346 56.3027 22.1131 55.8791 22.1131C55.5 22.1131 55.0986 21.9346 54.7196 21.5775V23.9205H53.181ZM55.2101 21.0643C55.3216 21.0643 55.4108 21.0197 55.4777 20.9527C55.5446 20.8635 55.5892 20.7742 55.6115 20.6403C55.6338 20.5288 55.6561 20.3726 55.6561 20.2164V17.8288C55.6561 17.6056 55.6115 17.4271 55.5446 17.2709C55.4777 17.137 55.3662 17.0701 55.2101 17.0701H55.1878C55.054 17.0701 54.8757 17.137 54.6973 17.2709V20.9081C54.8757 21.0197 55.054 21.0643 55.2101 21.0643Z" fill="#00838F"/>
<path d="M59.2907 22.1132C59.0231 22.1132 58.8001 22.0462 58.5994 21.89C58.3987 21.7338 58.2427 21.5776 58.1535 21.3545C58.0643 21.1537 57.9974 20.9305 57.9974 20.6851C57.9974 20.5289 58.0197 20.395 58.042 20.2611C58.0643 20.1272 58.1089 19.9933 58.1535 19.8818C58.1981 19.7702 58.265 19.6809 58.3318 19.5694C58.421 19.4801 58.4879 19.3909 58.5548 19.3016C58.6217 19.2347 58.7109 19.1454 58.8224 19.0785C58.9339 19.0115 59.0231 18.9446 59.1123 18.8999C59.2015 18.8553 59.2907 18.7884 59.4245 18.7438C59.5582 18.6768 59.6697 18.6322 59.7366 18.6099C59.8035 18.5876 59.915 18.5429 60.0488 18.476C60.1826 18.409 60.2941 18.3867 60.3387 18.3644V17.8512C60.3387 17.6504 60.3164 17.4942 60.2495 17.3826C60.2049 17.271 60.0934 17.2264 59.9373 17.2264C59.6697 17.2264 59.5359 17.4049 59.5359 17.7619L59.5136 18.1636L58.0866 18.0966C58.0866 18.0297 58.0866 17.9628 58.1089 17.8958C58.1535 17.271 58.3318 16.8247 58.6663 16.5347C59.0008 16.2446 59.469 16.0884 60.0934 16.0884C60.6731 16.0884 61.0968 16.2446 61.3867 16.557C61.6766 16.8694 61.8104 17.2933 61.8104 17.8512V20.5289C61.8104 20.9752 61.855 21.4661 61.9218 21.9793H60.5617C60.4725 21.5553 60.4279 21.2652 60.4279 21.1537C60.3387 21.4214 60.2049 21.6446 60.0265 21.8231C59.8258 22.0239 59.5805 22.1132 59.2907 22.1132ZM59.8481 20.9975C59.9373 20.9975 60.0265 20.9752 60.1157 20.9082C60.2049 20.8413 60.2941 20.7743 60.3387 20.6851V19.1008C60.0711 19.2347 59.8481 19.4355 59.6697 19.6586C59.4913 19.8818 59.4022 20.1272 59.4022 20.3727C59.4022 20.5735 59.4468 20.7297 59.5359 20.8413C59.6028 20.9528 59.7143 20.9975 59.8481 20.9975Z" fill="#00838F"/>
<path d="M65.4227 22.0016V13.8569H68.9681V14.9949H67.0727V17.1594H68.5444V18.3197H67.0727V20.8635H68.9904V22.0016H65.4227Z" fill="#00838F"/>
<path d="M69.7262 23.9205V16.1999H71.2425V16.6461C71.6215 16.2891 72.0229 16.1106 72.4243 16.1106C72.4243 16.1106 72.4466 16.1106 72.4689 16.1106C72.6918 16.1106 72.8925 16.1775 73.0709 16.2891C73.2493 16.4007 73.3831 16.5569 73.4723 16.7354C73.5615 16.9139 73.6284 17.1147 73.673 17.3156C73.7176 17.5164 73.7399 17.7172 73.7399 17.9403V20.1718C73.7399 20.7519 73.6284 21.2205 73.4054 21.5775C73.1824 21.9346 72.8479 22.1131 72.4243 22.1131C72.0452 22.1131 71.6438 21.9346 71.2648 21.5775V23.9205H69.7262ZM71.7553 21.0643C71.8668 21.0643 71.956 21.0197 72.0229 20.9527C72.0898 20.8635 72.1344 20.7742 72.1567 20.6403C72.179 20.5288 72.2013 20.3726 72.2013 20.2164V17.8288C72.2013 17.6056 72.1567 17.4271 72.0898 17.2709C72.0229 17.137 71.9114 17.0701 71.7553 17.0701H71.733C71.5992 17.0701 71.4209 17.137 71.2425 17.2709V20.9081C71.4209 21.0197 71.5992 21.0643 71.7553 21.0643Z" fill="#00838F"/>
<path d="M76.5048 22.113C75.8582 22.113 75.3676 21.9345 75.0331 21.5775C74.6987 21.2205 74.5426 20.7073 74.5426 20.0378V18.1635C74.5426 17.494 74.6987 16.9808 75.0331 16.6238C75.3676 16.2668 75.8359 16.0882 76.4825 16.0882C77.1292 16.0882 77.6197 16.2668 77.9096 16.6238C78.1995 16.9808 78.3556 17.5163 78.3556 18.2081V19.1899H76.0365V20.1494C76.0365 20.4395 76.0588 20.6626 76.1257 20.7965C76.1926 20.9304 76.3041 21.0196 76.4825 21.0196C76.7724 21.0196 76.9285 20.7965 76.9285 20.3725V19.837H78.3556V20.3056C78.3556 20.8858 78.1995 21.3544 77.865 21.6668C77.5751 21.9568 77.1069 22.113 76.5048 22.113ZM74.8102 15.5081V14.1023H76.0811V15.5081H74.8102ZM76.0811 18.4535H76.9731V17.8734C76.9731 17.6279 76.9285 17.4494 76.8616 17.3378C76.7947 17.2263 76.6832 17.1816 76.5048 17.1816C76.3487 17.1816 76.2372 17.2486 76.1703 17.3601C76.1034 17.4717 76.0811 17.6949 76.0811 18.0073V18.4535ZM76.8616 15.5081V14.1023H78.1326V15.5081H76.8616Z" fill="#00838F"/>
<path d="M79.2698 22.0016L79.2921 16.2H80.407L81.6111 19.1454L82.8152 16.2H83.9301L83.9524 22.0016H82.7483V18.9L81.8564 21.1983H81.4104L80.4739 18.9V22.0016H79.2698Z" fill="#00838F"/>
<path d="M85.0227 22.0016V16.2H86.2491V19.4801L87.81 16.2H88.9918V22.0016H87.7654V18.7438L86.2268 22.0016H85.0227Z" fill="#00838F"/>
<path d="M90.0175 22.0016V16.2H91.5338V18.4983H92.5818V16.2H94.098V22.0016H92.5818V19.5471H91.5338V22.0016H90.0175Z" fill="#00838F"/>
<path d="M96.3056 22.1132C96.038 22.1132 95.815 22.0462 95.6143 21.89C95.4136 21.7338 95.2575 21.5776 95.1684 21.3545C95.0792 21.1537 95.0123 20.9305 95.0123 20.6851C95.0123 20.5289 95.0346 20.395 95.0569 20.2611C95.0792 20.1272 95.1238 19.9933 95.1684 19.8818C95.2129 19.7702 95.2798 19.6809 95.3467 19.5694C95.4359 19.4801 95.5028 19.3909 95.5697 19.3016C95.6366 19.2347 95.7258 19.1454 95.8373 19.0785C95.9488 19.0115 96.038 18.9446 96.1272 18.8999C96.2164 18.8553 96.3056 18.7884 96.4393 18.7438C96.5731 18.6768 96.6846 18.6322 96.7515 18.6099C96.8184 18.5876 96.9299 18.5429 97.0637 18.476C97.1975 18.4314 97.309 18.3867 97.3536 18.3644V17.8512C97.3536 17.6504 97.3313 17.4942 97.2644 17.3826C97.2198 17.271 97.1083 17.2264 96.9522 17.2264C96.6846 17.2264 96.5508 17.4049 96.5508 17.7619L96.5285 18.1636L95.1015 18.0966C95.1015 18.0297 95.1015 17.9628 95.1238 17.8958C95.1684 17.271 95.3467 16.8247 95.6812 16.5347C96.0157 16.2446 96.4839 16.0884 97.1083 16.0884C97.688 16.0884 98.1117 16.2446 98.4016 16.557C98.6915 16.8694 98.8252 17.2933 98.8252 17.8512V20.5289C98.8252 20.9752 98.8698 21.4661 98.9367 21.9793H97.5766C97.4874 21.5553 97.4428 21.2652 97.4428 21.1537C97.3536 21.4214 97.2198 21.6446 97.0414 21.8231C96.8407 22.0239 96.5954 22.1132 96.3056 22.1132ZM96.863 20.9975C96.9522 20.9975 97.0414 20.9752 97.1306 20.9082C97.2198 20.8413 97.309 20.7743 97.3536 20.6851V19.1008C97.086 19.2347 96.863 19.4355 96.6846 19.6586C96.5062 19.8818 96.417 20.1272 96.417 20.3727C96.417 20.5735 96.4616 20.7297 96.5508 20.8413C96.6177 20.9528 96.7292 20.9975 96.863 20.9975Z" fill="#00838F"/>
</g>
<defs>
<clipPath id="clip0_3_398">
<rect width="111" height="27" fill="white"/>
</clipPath>
</defs>
</svg>
