<svg width="35" height="39" viewBox="0 0 35 39" fill="none" xmlns="http://www.w3.org/2000/svg">
<path d="M20.7244 0.62085C12.8006 0.62085 6.38452 6.84995 6.38452 14.5117C6.38452 14.6986 6.38452 14.9166 6.38452 15.1035L10.7153 15.2592C10.6833 15.0101 10.6833 14.7609 10.6833 14.5117C10.6833 9.15471 15.1745 4.79435 20.6923 4.79435C26.2101 4.79435 30.7013 9.15471 30.7013 14.5117C30.7013 19.6819 26.5309 23.9488 21.2697 24.2291L22.0076 28.3715C29.2898 27.7174 35 21.7686 35 14.5117C35.0321 6.84995 28.6161 0.62085 20.7244 0.62085Z" fill="#00838F"/>
<path fill-rule="evenodd" clip-rule="evenodd" d="M28.391 14.5118C28.391 18.6541 24.9584 21.9867 20.6917 21.9867C19.2481 21.9867 17.9328 21.6129 16.7779 20.9589L7.85964 28.4649L0 38.3069L5.06867 19.1213L13.6982 17.5952C13.2491 16.6608 13.0246 15.633 13.0246 14.5429C13.0246 10.4317 16.4571 7.06799 20.7238 7.06799C24.9584 7.06799 28.391 10.4006 28.391 14.5118Z" fill="#00838F"/>
</svg>
