<svg width="22" height="22" viewBox="0 0 22 22" fill="none" xmlns="http://www.w3.org/2000/svg">
<path fill-rule="evenodd" clip-rule="evenodd" d="M16.8666 5.1333H5.13329C4.32663 5.1333 3.67396 5.7933 3.67396 6.59997L3.66663 15.4C3.66663 16.2066 4.32663 16.8666 5.13329 16.8666H16.8666C17.6733 16.8666 18.3333 16.2066 18.3333 15.4V6.59997C18.3333 5.7933 17.6733 5.1333 16.8666 5.1333ZM16.5733 8.24997L11.3886 11.4913C11.154 11.638 10.846 11.638 10.6113 11.4913L5.42663 8.24997C5.24329 8.13263 5.13329 7.93463 5.13329 7.72197C5.13329 7.23063 5.66863 6.9373 6.08663 7.19397L11 10.2666L15.9133 7.19397C16.3313 6.9373 16.8666 7.23063 16.8666 7.72197C16.8666 7.93463 16.7566 8.13263 16.5733 8.24997Z" fill="#2C5FF0"/>
</svg>
