<svg width="20" height="20" viewBox="0 0 20 20" fill="none" xmlns="http://www.w3.org/2000/svg">
<path fill-rule="evenodd" clip-rule="evenodd" d="M9.9981 3.33325C6.32289 3.33325 3.33337 6.32277 3.33337 9.99798C3.33337 11.4555 3.80356 12.8073 4.60283 13.9044L3.77215 16.3806L6.33461 15.5619C7.38854 16.2593 8.64627 16.6628 10.002 16.6628C13.6772 16.6628 16.6667 13.6732 16.6667 9.99809C16.6667 6.32288 13.6772 3.33336 10.002 3.33336H9.9981V3.33325ZM8.13694 6.71864C8.00768 6.40913 7.9097 6.39741 7.71387 6.38945C7.6395 6.38466 7.56501 6.38207 7.4905 6.38171C7.23572 6.38171 6.96934 6.45612 6.80866 6.62067C6.61283 6.82048 6.12694 7.28669 6.12694 8.24276C6.12694 9.19883 6.82437 10.1235 6.91836 10.2529C7.01633 10.382 8.27804 12.3725 10.2371 13.1837C11.769 13.8184 12.2236 13.7596 12.5723 13.6851C13.0816 13.5754 13.7203 13.1991 13.881 12.7448C14.0417 12.2902 14.0417 11.9023 13.9946 11.82C13.9476 11.7377 13.8182 11.6908 13.6223 11.5928C13.4265 11.4948 12.4743 11.0246 12.2941 10.9619C12.1177 10.8953 11.9493 10.9189 11.8161 11.107C11.628 11.3695 11.4439 11.636 11.295 11.7966C11.1774 11.922 10.9854 11.9377 10.8248 11.871C10.6093 11.781 10.006 11.5692 9.26143 10.9071C8.68542 10.3939 8.29363 9.75526 8.18007 9.5633C8.06639 9.36746 8.16835 9.25367 8.25836 9.14796C8.35633 9.02643 8.45033 8.94029 8.5483 8.82662C8.64627 8.71305 8.70112 8.65422 8.76382 8.52097C8.8305 8.39171 8.78339 8.25846 8.73639 8.16049C8.6894 8.06251 8.29762 7.10644 8.13694 6.71864V6.71864Z" fill="#4CAF50"/>
</svg>
